<svg width="144" height="112" viewBox="0 0 144 112" fill="none" xmlns="http://www.w3.org/2000/svg">
<path d="M56.836 111.215C46.9869 110.508 38.8778 108.293 32.2019 105.15C-2.85185 88.6483 1.08963 39.7463 0.906982 1.00301C0.906982 1.00263 0.907432 1.00245 0.907695 1.00271L0.907855 1.00287C0.907942 1.00296 0.908062 1.00301 0.908185 1.00302C44.5776 4.13823 54.039 36.91 56.0398 48.8082C56.5186 51.6553 56.5688 54.538 56.5824 57.425L56.836 111.215Z" fill="black"/>
<path d="M62.7732 63.9792C62.7704 63.9841 62.763 63.9821 62.763 63.9765V63.9728C62.763 63.9718 62.7621 63.971 62.7611 63.971C62.7597 63.971 62.7589 63.9695 62.7597 63.9683L62.7623 63.9641C62.7627 63.9634 62.763 63.9625 62.7629 63.9617L62.5281 39.5606C62.4828 34.8494 62.7832 30.1107 64.4332 25.6976C67.9494 16.2934 77.039 0.457709 98.3478 0.658957C98.3503 0.658981 98.3527 0.657653 98.354 0.65548L98.3567 0.650753C98.3595 0.645884 98.367 0.647879 98.367 0.653501V0.657212C98.367 0.658197 98.3678 0.658997 98.3688 0.658997C98.3702 0.658997 98.371 0.660538 98.3703 0.661727L98.3677 0.665892C98.3672 0.66662 98.367 0.667464 98.367 0.668323L98.6018 25.0724C98.6472 29.7817 98.3468 34.5182 96.6978 38.9295C93.1824 48.3334 84.0931 64.1723 62.7821 63.971C62.7796 63.971 62.7772 63.9723 62.7759 63.9745L62.7732 63.9792Z" fill="black"/>
<path d="M143.413 111.277C143.424 111.282 143.42 111.299 143.408 111.299C143.401 111.299 143.396 111.304 143.396 111.311C143.396 111.322 143.396 111.333 143.396 111.343C143.397 111.377 143.363 111.399 143.333 111.384L143.185 111.313C143.165 111.304 143.144 111.299 143.122 111.299L104.5 111.352C98.7711 111.36 92.9995 110.843 87.7771 108.488C77.9946 104.077 62.785 93.8056 62.3391 72.4791C62.3391 72.4785 62.3387 72.4778 62.3381 72.4775L62.3369 72.4769C62.3354 72.4762 62.3359 72.474 62.3375 72.474C62.3384 72.474 62.3391 72.4733 62.3391 72.4725C62.3391 72.4721 62.3391 72.4717 62.3391 72.4713C62.3391 72.4693 62.3411 72.468 62.3429 72.4688L62.3522 72.4731C62.3534 72.4737 62.3548 72.474 62.3561 72.474H101.396C107.055 72.474 112.754 72.9946 117.914 75.3178C127.664 79.7083 142.911 89.961 143.395 111.259C143.395 111.264 143.398 111.269 143.403 111.272L143.413 111.277Z" fill="black"/>
</svg>
