<svg width="430" height="932" viewBox="0 0 430 932" fill="none" xmlns="http://www.w3.org/2000/svg">
<g clip-path="url(#clip0_2_4)">
<rect width="430" height="932" rx="215" fill="white"/>
<rect x="-130" y="1359" width="872" height="690" rx="345" transform="rotate(-90 -130 1359)" fill="#171717"/>
<path d="M64.7819 727.455C64.8174 733.934 66.1988 740.345 68.934 746.226C71.8694 752.538 76.2919 758.121 81.7588 762.434C87.1242 766.666 93.4699 769.633 100.159 771.04C103.725 771.79 107.318 772 110.948 772C114.879 772 118.81 772 122.741 772C129.748 772 136.755 772 143.761 772C152.911 772 162.062 772 171.212 772C181.623 772 192.036 772 202.447 772C213.252 772 224.057 772 234.862 772C245.128 772 255.395 772 265.66 772C274.44 772 283.219 772 291.998 772C298.486 772 304.975 772 311.463 772C314.703 772 317.942 772 321.182 772C325.789 772 330.345 771.414 334.76 770.072C341.347 768.071 347.446 764.532 352.443 759.799C357.463 755.044 361.34 749.137 363.7 742.64C365.479 737.741 366.36 732.564 366.371 727.357C366.374 726.161 366.371 724.965 366.371 723.77C366.371 720.962 366.371 718.153 366.371 715.346C366.371 711.06 366.371 706.773 366.371 702.487C366.371 696.878 366.371 691.269 366.371 685.66C366.371 678.917 366.371 672.173 366.371 665.43C366.371 657.627 366.371 649.824 366.371 642.021C366.371 633.341 366.371 624.662 366.371 615.982C366.371 606.575 366.371 597.168 366.371 587.761C366.371 577.831 366.371 567.902 366.371 557.972C366.371 547.56 366.371 537.147 366.371 526.734C366.371 516.041 366.371 505.347 366.371 494.654C366.371 483.859 366.371 473.064 366.371 462.268C366.371 451.49 366.371 440.712 366.371 429.933C366.371 419.291 366.371 408.649 366.371 398.007C366.371 387.68 366.371 377.353 366.371 367.025C366.371 357.215 366.371 347.404 366.371 337.594C366.371 328.34 366.371 319.087 366.371 309.834C366.371 301.342 366.371 292.851 366.371 284.359C366.371 276.779 366.371 269.197 366.371 261.617C366.371 255.129 366.371 248.64 366.371 242.151C366.371 236.833 366.371 231.514 366.371 226.195C366.371 222.233 366.371 218.272 366.371 214.311C366.371 211.86 366.371 209.411 366.371 206.96C366.371 205.933 366.381 204.905 366.366 203.877C366.268 197.384 364.733 190.933 361.895 185.091C358.835 178.794 354.28 173.247 348.691 169.025C343.316 164.964 337.033 162.146 330.421 160.843C326.956 160.159 323.472 160 319.955 160C315.89 160 311.825 160 307.759 160C300.653 160 293.547 160 286.44 160C277.252 160 268.064 160 258.876 160C248.407 160 237.937 160 227.467 160C216.666 160 205.865 160 195.065 160C184.837 160 174.61 160 164.382 160C155.676 160 146.969 160 138.262 160C131.882 160 125.501 160 119.12 160C116.023 160 112.926 160 109.829 160C105.014 160 100.243 160.675 95.6545 162.158C89.1229 164.27 83.1197 167.892 78.2061 172.683C73.2241 177.541 69.4161 183.574 67.1702 190.158C65.5735 194.837 64.7899 199.744 64.781 204.685C64.7783 205.94 64.781 207.194 64.781 208.449C64.781 211.322 64.781 214.194 64.781 217.067C64.781 221.406 64.781 225.746 64.781 230.085C64.781 235.742 64.781 241.398 64.781 247.056C64.781 253.841 64.781 260.626 64.781 267.411C64.781 275.25 64.781 283.089 64.781 290.929C64.781 299.639 64.781 308.35 64.781 317.06C64.781 326.465 64.781 335.87 64.781 345.275C64.781 355.25 64.781 365.226 64.781 375.201C64.781 385.628 64.781 396.053 64.781 406.48C64.781 417.181 64.781 427.882 64.781 438.583C64.781 449.351 64.781 460.118 64.781 470.886C64.781 481.69 64.781 492.495 64.781 503.3C64.781 513.932 64.781 524.565 64.781 535.198C64.781 545.51 64.781 555.823 64.781 566.135C64.781 575.925 64.781 585.715 64.781 595.505C64.781 604.731 64.781 613.959 64.781 623.186C64.781 631.645 64.781 640.105 64.781 648.564C64.781 656.088 64.781 663.612 64.781 671.136C64.781 677.6 64.781 684.064 64.781 690.53C64.781 695.799 64.781 701.069 64.781 706.339C64.781 710.245 64.781 714.151 64.781 718.057C64.781 720.443 64.781 722.828 64.781 725.213C64.7819 725.96 64.7819 726.708 64.7819 727.455Z" fill="#222222" stroke="black" stroke-width="1.5" stroke-miterlimit="10" stroke-linecap="round" stroke-linejoin="round"/>
<path d="M248.238 184.284C248.237 182.253 246.925 180.392 245.01 179.707C243.096 179.023 240.896 179.629 239.606 181.199C238.315 182.768 238.147 185.04 239.191 186.781C240.237 188.523 242.32 189.447 244.316 189.052C246.303 188.659 247.874 187.021 248.181 185.021C248.218 184.777 248.238 184.531 248.238 184.284Z" stroke="black" stroke-width="1.5" stroke-miterlimit="10" stroke-linecap="round" stroke-linejoin="round"/>
<path d="M229.627 184.266C229.627 182.722 228.694 181.331 227.391 180.937C226.867 180.778 226.315 180.822 225.777 180.822C224.341 180.822 222.905 180.822 221.468 180.822C217.161 180.822 212.854 180.822 208.547 180.822C206.302 180.822 203.763 180.822 201.696 180.84C198.707 181.206 198.036 186.028 200.796 187.418C201.292 187.667 201.798 187.707 202.329 187.709C203.492 187.715 204.656 187.709 205.819 187.709C210.052 187.709 214.285 187.709 218.518 187.709C221.206 187.709 223.912 187.812 226.599 187.709C227.888 187.66 229.041 186.805 229.466 185.375C229.573 185.018 229.627 184.642 229.627 184.266Z" stroke="black" stroke-width="1.5" stroke-miterlimit="10" stroke-linecap="round" stroke-linejoin="round"/>
<path d="M62.0903 245.774C62.4818 245.774 63.9862 245.557 64.2024 245.804C64.3162 245.935 64.2024 246.703 64.2024 246.865C64.2024 248.733 64.2024 250.602 64.2024 252.47C64.2024 256.986 64.2024 261.503 64.2024 266.019C64.2024 266.34 64.3749 267.283 64.2024 267.565C64.02 267.863 62.5263 267.656 62.0903 267.656C62.0903 267.656 62.0903 250.067 62.0903 248.521C62.0903 247.606 62.0903 246.69 62.0903 245.774Z" stroke="black" stroke-width="1.5" stroke-miterlimit="10" stroke-linecap="round" stroke-linejoin="round"/>
<path d="M62.0905 287.226C62.4188 287.226 64.0229 287.013 64.2026 287.226C64.2444 287.275 64.1919 287.484 64.2026 287.545C64.3298 288.262 64.2026 289.121 64.2026 289.847C64.2026 293.013 64.2026 296.181 64.2026 299.348C64.2026 307.191 64.2026 315.034 64.2026 322.878C64.2026 324.104 64.2026 325.331 64.2026 326.558C64.2026 326.908 64.4018 328.021 64.2026 328.325C64.0727 328.523 62.2195 328.523 62.0905 328.325C61.8868 328.014 62.0905 326.877 62.0905 326.518C62.0905 319.487 62.0905 312.456 62.0905 305.424C62.0905 299.459 62.0905 293.493 62.0905 287.528C62.0905 287.428 62.0905 287.326 62.0905 287.226Z" stroke="black" stroke-width="1.5" stroke-miterlimit="10" stroke-linecap="round" stroke-linejoin="round"/>
<path d="M62.0905 338.949C62.4188 338.949 64.0229 338.736 64.2026 338.949C64.2444 338.998 64.1919 339.207 64.2026 339.268C64.3298 339.985 64.2026 340.844 64.2026 341.57C64.2026 344.736 64.2026 347.904 64.2026 351.071C64.2026 358.914 64.2026 366.757 64.2026 374.601C64.2026 375.827 64.2026 377.054 64.2026 378.281C64.2026 378.631 64.4018 379.744 64.2026 380.048C64.0727 380.246 62.2195 380.246 62.0905 380.048C61.8868 379.737 62.0905 378.6 62.0905 378.241C62.0905 371.21 62.0905 364.179 62.0905 357.147C62.0905 351.182 62.0905 345.216 62.0905 339.251C62.0905 339.151 62.0905 339.05 62.0905 338.949Z" stroke="black" stroke-width="1.5" stroke-miterlimit="10" stroke-linecap="round" stroke-linejoin="round"/>
<path d="M365.842 300.154C366.252 300.154 367.759 299.948 367.954 300.217C368.045 300.342 367.954 300.887 367.954 301.035C367.954 302.412 367.954 303.789 367.954 305.166C367.954 310.301 367.954 315.437 367.954 320.572C367.954 327.057 367.954 333.542 367.954 340.026C367.954 345.767 367.954 351.508 367.954 357.249C367.954 359.156 367.954 361.064 367.954 362.971C367.954 363.566 367.954 364.16 367.954 364.755C367.954 364.962 368.057 365.502 367.954 365.687C367.822 365.926 366.377 365.936 366.053 365.802C365.756 365.678 365.875 365.814 365.842 365.43C365.745 364.34 365.842 363.196 365.842 362.104C365.842 357.292 365.842 352.48 365.842 347.669C365.842 341.21 365.842 334.75 365.842 328.291C365.842 322.342 365.842 316.394 365.842 310.445C365.842 307.17 365.842 303.896 365.842 300.622C365.842 300.465 365.842 300.31 365.842 300.154Z" stroke="black" stroke-width="1.5" stroke-miterlimit="10" stroke-linecap="round" stroke-linejoin="round"/>
<mask id="mask0_2_4" style="mask-type:alpha" maskUnits="userSpaceOnUse" x="81" y="176" width="269" height="578">
<path d="M143.328 176.669C135.555 176.669 127.781 176.669 120.008 176.669C116.552 176.669 113.096 176.667 109.64 176.669C107.236 176.67 104.859 176.907 102.524 177.484C96.9459 178.86 91.8598 181.99 88.1241 186.336C84.3884 190.683 82.0689 196.17 81.5665 201.869C81.44 203.299 81.4587 204.729 81.4587 206.162C81.4587 208.363 81.4587 210.563 81.4587 212.764C81.4587 216.422 81.4587 220.081 81.4587 223.739C81.4587 228.731 81.4587 233.724 81.4587 238.715C81.4587 244.893 81.4587 251.071 81.4587 257.248C81.4587 264.45 81.4587 271.65 81.4587 278.852C81.4587 286.952 81.4587 295.054 81.4587 303.155C81.4587 312.042 81.4587 320.929 81.4587 329.816C81.4587 339.328 81.4587 348.839 81.4587 358.351C81.4587 368.318 81.4587 378.285 81.4587 388.252C81.4587 398.561 81.4587 408.87 81.4587 419.179C81.4587 429.749 81.4587 440.32 81.4587 450.891C81.4587 461.466 81.4587 472.041 81.4587 482.616C81.4587 493.114 81.4587 503.613 81.4587 514.112C81.4587 524.394 81.4587 534.677 81.4587 544.959C81.4587 554.94 81.4587 564.922 81.4587 574.903C81.4587 584.333 81.4587 593.763 81.4587 603.192C81.4587 611.987 81.4587 620.782 81.4587 629.578C81.4587 637.6 81.4587 645.621 81.4587 653.642C81.4587 660.788 81.4587 667.933 81.4587 675.078C81.4587 681.128 81.4587 687.178 81.4587 693.228C81.4587 698.086 81.4587 702.943 81.4587 707.8C81.4587 711.334 81.4587 714.868 81.4587 718.402C81.4587 720.456 81.4587 722.51 81.4587 724.565C81.4587 726.429 81.489 728.279 81.7687 730.13C82.6194 735.759 85.2417 741.063 89.2036 745.168C93.1834 749.291 98.437 752.121 104.083 753.176C106.787 753.68 109.489 753.653 112.221 753.653C116.682 753.653 121.143 753.653 125.603 753.653C132.864 753.653 140.125 753.653 147.385 753.653C156.626 753.653 165.866 753.653 175.107 753.653C185.454 753.653 195.803 753.653 206.15 753.653C216.722 753.653 227.294 753.653 237.865 753.653C247.839 753.653 257.814 753.653 267.788 753.653C276.36 753.653 284.931 753.653 293.503 753.653C299.723 753.653 305.945 753.653 312.166 753.653C315.242 753.653 318.317 753.653 321.392 753.653C325.616 753.653 329.746 752.868 333.593 751.099C338.828 748.691 343.233 744.646 346.08 739.656C348.462 735.481 349.677 730.744 349.694 725.949C349.698 724.84 349.694 723.73 349.694 722.621C349.694 719.958 349.694 717.294 349.694 714.631C349.694 710.526 349.694 706.421 349.694 702.317C349.694 696.956 349.694 691.595 349.694 686.235C349.694 679.738 349.694 673.243 349.694 666.746C349.694 659.232 349.694 651.717 349.694 644.203C349.694 635.827 349.694 627.451 349.694 619.074C349.694 610.004 349.694 600.933 349.694 591.862C349.694 582.214 349.694 572.565 349.694 562.917C349.694 552.801 349.694 542.686 349.694 532.57C349.694 522.154 349.694 511.738 349.694 501.322C349.694 490.775 349.694 480.229 349.694 469.682C349.694 459.117 349.694 448.55 349.694 437.984C349.694 427.479 349.694 416.974 349.694 406.47C349.694 396.283 349.694 386.097 349.694 375.911C349.694 366.123 349.694 356.335 349.694 346.548C349.694 337.298 349.694 328.049 349.694 318.799C349.694 310.181 349.694 301.563 349.694 292.945C349.694 285.195 349.694 277.443 349.694 269.693C349.694 262.899 349.694 256.105 349.694 249.311C349.694 243.612 349.694 237.914 349.694 232.215C349.694 227.731 349.694 223.247 349.694 218.762C349.694 215.681 349.694 212.601 349.694 209.52C349.694 207.954 349.694 206.388 349.694 204.821C349.694 201.506 349.223 198.242 348.112 195.107C346.194 189.694 342.569 184.946 337.844 181.656C333.189 178.416 327.608 176.693 321.935 176.668C314.108 176.634 306.28 176.668 298.453 176.668C295.025 176.668 291.596 176.664 288.168 176.668C286.877 176.67 285.664 176.934 284.83 177.999C283.468 179.737 283.633 182.388 283.152 184.431C282.498 187.213 281.401 189.971 279.509 192.158C276.378 195.777 271.761 196.071 267.206 196.071C258.894 196.071 250.584 196.071 242.272 196.071C233.837 196.071 225.402 196.071 216.967 196.071C212.684 196.071 208.401 196.071 204.118 196.071C194.063 196.071 184.009 196.071 173.953 196.071C170.545 196.071 167.138 196.071 163.73 196.071C161.844 196.071 160.175 196.53 158.323 196.104C152.64 194.798 149.4 190.108 148.068 184.712C147.331 181.717 147.654 176.663 143.328 176.669Z" fill="#C4C4C4"/>
</mask>
<g mask="url(#mask0_2_4)">
<rect x="81.4578" y="176.653" width="268.238" height="577" rx="2" fill="#313338"/>
<circle cx="100" cy="594" r="12" fill="#4E5058"/>
<rect x="118" y="582" width="111" height="8" rx="4" fill="#4E5058"/>
<rect x="118" y="685" width="34" height="16" rx="2" fill="#4E5058"/>
<rect x="118" y="705" width="34" height="16" rx="2" fill="#4E5058"/>
<rect x="118" y="725" width="34" height="16" rx="2" fill="#4E5058"/>
<rect x="156" y="685" width="34" height="16" rx="2" fill="#4E5058"/>
<rect x="156" y="705" width="34" height="16" rx="2" fill="#4E5058"/>
<rect x="156" y="725" width="34" height="16" rx="2" fill="#4E5058"/>
<rect x="194" y="685" width="34" height="16" rx="2" fill="#4E5058"/>
<rect x="194" y="705" width="34" height="16" rx="2" fill="#4E5058"/>
<rect x="194" y="725" width="34" height="16" rx="2" fill="#4E5058"/>
<rect x="118" y="594" width="223" height="87" rx="6" fill="#2B2D31"/>
<path d="M118 596C118 594.895 118.895 594 120 594V594V681V681C118.895 681 118 680.105 118 679V596Z" fill="white"/>
<rect x="126" y="642" width="184" height="31" rx="4" fill="#4E5058"/>
<rect x="126" y="612" width="40" height="6" rx="3" fill="#4E5058"/>
<rect x="126" y="622" width="10" height="4" rx="2" fill="#4E5058"/>
<rect x="138" y="622" width="16" height="4" rx="2" fill="#4E5058"/>
<rect x="156" y="622" width="26" height="4" rx="2" fill="#4E5058"/>
<rect x="126" y="634" width="38" height="4" rx="2" fill="#4E5058"/>
<rect x="166" y="634" width="16" height="4" rx="2" fill="#4E5058"/>
<rect x="126" y="628" width="26" height="4" rx="2" fill="#4E5058"/>
<rect x="154" y="628" width="28" height="4" rx="2" fill="#4E5058"/>
<rect x="190" y="612" width="40" height="6" rx="3" fill="#4E5058"/>
<rect x="190" y="622" width="10" height="4" rx="2" fill="#4E5058"/>
<rect x="202" y="622" width="16" height="4" rx="2" fill="#4E5058"/>
<rect x="220" y="622" width="26" height="4" rx="2" fill="#4E5058"/>
<rect x="190" y="634" width="38" height="4" rx="2" fill="#4E5058"/>
<rect x="230" y="634" width="16" height="4" rx="2" fill="#4E5058"/>
<rect x="190" y="628" width="26" height="4" rx="2" fill="#4E5058"/>
<rect x="218" y="628" width="28" height="4" rx="2" fill="#4E5058"/>
<rect x="254" y="612" width="40" height="6" rx="3" fill="#4E5058"/>
<rect x="254" y="622" width="10" height="4" rx="2" fill="#4E5058"/>
<rect x="266" y="622" width="16" height="4" rx="2" fill="#4E5058"/>
<rect x="284" y="622" width="26" height="4" rx="2" fill="#4E5058"/>
<rect x="254" y="634" width="38" height="4" rx="2" fill="#4E5058"/>
<rect x="294" y="634" width="16" height="4" rx="2" fill="#4E5058"/>
<rect x="254" y="628" width="26" height="4" rx="2" fill="#4E5058"/>
<rect x="282" y="628" width="28" height="4" rx="2" fill="#4E5058"/>
<rect x="126" y="598" width="111" height="6" rx="3" fill="#4E5058"/>
<circle cx="100" cy="469" r="12" fill="#4E5058"/>
<rect x="118" y="457" width="111" height="8" rx="4" fill="#4E5058"/>
<rect x="118" y="550" width="48" height="16" rx="2" fill="#4E5058"/>
<rect x="170" y="550" width="48" height="16" rx="2" fill="#4E5058"/>
<rect x="222" y="550" width="48" height="16" rx="2" fill="#4E5058"/>
<rect x="118" y="469" width="223" height="77" rx="6" fill="#2B2D31"/>
<path d="M118 471C118 469.895 118.895 469 120 469V469V546V546C118.895 546 118 545.105 118 544V471Z" fill="white"/>
<rect x="126" y="507" width="184" height="31" rx="4" fill="#4E5058"/>
<rect x="126" y="487" width="56" height="4" rx="2" fill="#4E5058"/>
<rect x="148" y="499" width="65" height="4" rx="2" fill="#4E5058"/>
<rect x="126" y="499" width="18" height="4" rx="2" fill="#4E5058"/>
<rect x="126" y="493" width="116" height="4" rx="2" fill="#4E5058"/>
<rect x="186" y="487" width="116" height="4" rx="2" fill="#4E5058"/>
<rect x="217" y="499" width="85" height="4" rx="2" fill="#4E5058"/>
<rect x="246" y="493" width="23" height="4" rx="2" fill="#4E5058"/>
<rect x="273" y="493" width="29" height="4" rx="2" fill="#4E5058"/>
<rect x="126" y="473" width="111" height="6" rx="3" fill="#4E5058"/>
<line x1="88" y1="440.5" x2="341" y2="440.5" stroke="#4E5058"/>
<rect x="200" y="437" width="29" height="7" rx="3.5" fill="#313338"/>
<path d="M206.755 443V439.46H205.363V438.8H208.927V439.46H207.535V443H206.755ZM210.552 443.042C210.224 443.042 209.932 442.972 209.676 442.832C209.42 442.688 209.218 442.492 209.07 442.244C208.922 441.996 208.848 441.714 208.848 441.398C208.848 441.078 208.922 440.796 209.07 440.552C209.218 440.304 209.42 440.11 209.676 439.97C209.932 439.83 210.224 439.76 210.552 439.76C210.884 439.76 211.178 439.83 211.434 439.97C211.694 440.11 211.896 440.302 212.04 440.546C212.188 440.79 212.262 441.074 212.262 441.398C212.262 441.714 212.188 441.996 212.04 442.244C211.896 442.492 211.694 442.688 211.434 442.832C211.178 442.972 210.884 443.042 210.552 443.042ZM210.552 442.4C210.736 442.4 210.9 442.36 211.044 442.28C211.188 442.2 211.3 442.084 211.38 441.932C211.464 441.78 211.506 441.602 211.506 441.398C211.506 441.19 211.464 441.012 211.38 440.864C211.3 440.712 211.188 440.596 211.044 440.516C210.9 440.436 210.738 440.396 210.558 440.396C210.374 440.396 210.21 440.436 210.066 440.516C209.926 440.596 209.814 440.712 209.73 440.864C209.646 441.012 209.604 441.19 209.604 441.398C209.604 441.602 209.646 441.78 209.73 441.932C209.814 442.084 209.926 442.2 210.066 442.28C210.21 442.36 210.372 442.4 210.552 442.4ZM214.335 443.042C214.027 443.042 213.749 442.974 213.501 442.838C213.257 442.698 213.065 442.506 212.925 442.262C212.785 442.018 212.715 441.73 212.715 441.398C212.715 441.066 212.785 440.778 212.925 440.534C213.065 440.29 213.257 440.1 213.501 439.964C213.749 439.828 214.027 439.76 214.335 439.76C214.603 439.76 214.843 439.82 215.055 439.94C215.267 440.056 215.435 440.234 215.559 440.474C215.683 440.714 215.745 441.022 215.745 441.398C215.745 441.77 215.685 442.078 215.565 442.322C215.445 442.562 215.279 442.742 215.067 442.862C214.855 442.982 214.611 443.042 214.335 443.042ZM214.425 442.4C214.605 442.4 214.765 442.36 214.905 442.28C215.049 442.2 215.163 442.084 215.247 441.932C215.335 441.78 215.379 441.602 215.379 441.398C215.379 441.19 215.335 441.012 215.247 440.864C215.163 440.712 215.049 440.596 214.905 440.516C214.765 440.436 214.605 440.396 214.425 440.396C214.245 440.396 214.083 440.436 213.939 440.516C213.799 440.596 213.685 440.712 213.597 440.864C213.513 441.012 213.471 441.19 213.471 441.398C213.471 441.602 213.513 441.78 213.597 441.932C213.685 442.084 213.799 442.2 213.939 442.28C214.083 442.36 214.245 442.4 214.425 442.4ZM215.397 443V442.244L215.427 441.392L215.367 440.54V438.548H216.111V443H215.397ZM219.072 443V442.352L219.03 442.214V441.08C219.03 440.86 218.964 440.69 218.832 440.57C218.7 440.446 218.5 440.384 218.232 440.384C218.052 440.384 217.874 440.412 217.698 440.468C217.526 440.524 217.38 440.602 217.26 440.702L216.966 440.156C217.138 440.024 217.342 439.926 217.578 439.862C217.818 439.794 218.066 439.76 218.322 439.76C218.786 439.76 219.144 439.872 219.396 440.096C219.652 440.316 219.78 440.658 219.78 441.122V443H219.072ZM218.064 443.042C217.824 443.042 217.614 443.002 217.434 442.922C217.254 442.838 217.114 442.724 217.014 442.58C216.918 442.432 216.87 442.266 216.87 442.082C216.87 441.902 216.912 441.74 216.996 441.596C217.084 441.452 217.226 441.338 217.422 441.254C217.618 441.17 217.878 441.128 218.202 441.128H219.132V441.626H218.256C218 441.626 217.828 441.668 217.74 441.752C217.652 441.832 217.608 441.932 217.608 442.052C217.608 442.188 217.662 442.296 217.77 442.376C217.878 442.456 218.028 442.496 218.22 442.496C218.404 442.496 218.568 442.454 218.712 442.37C218.86 442.286 218.966 442.162 219.03 441.998L219.156 442.448C219.084 442.636 218.954 442.782 218.766 442.886C218.582 442.99 218.348 443.042 218.064 443.042ZM220.948 444.206C220.792 444.206 220.636 444.18 220.48 444.128C220.324 444.076 220.194 444.004 220.09 443.912L220.39 443.36C220.466 443.428 220.552 443.482 220.648 443.522C220.744 443.562 220.842 443.582 220.942 443.582C221.078 443.582 221.188 443.548 221.272 443.48C221.356 443.412 221.434 443.298 221.506 443.138L221.692 442.718L221.752 442.628L222.964 439.796H223.684L222.184 443.258C222.084 443.498 221.972 443.688 221.848 443.828C221.728 443.968 221.592 444.066 221.44 444.122C221.292 444.178 221.128 444.206 220.948 444.206ZM221.608 443.114L220.162 439.796H220.942L222.118 442.562L221.608 443.114Z" fill="#4E5058"/>
</g>
<path d="M143.328 176.669C135.555 176.669 127.781 176.669 120.008 176.669C116.552 176.669 113.096 176.667 109.64 176.669C107.236 176.67 104.859 176.907 102.524 177.484C96.9459 178.86 91.8598 181.99 88.1241 186.336C84.3884 190.683 82.0689 196.17 81.5665 201.869C81.44 203.299 81.4587 204.729 81.4587 206.162C81.4587 208.363 81.4587 210.563 81.4587 212.764C81.4587 216.422 81.4587 220.081 81.4587 223.739C81.4587 228.731 81.4587 233.724 81.4587 238.715C81.4587 244.893 81.4587 251.071 81.4587 257.248C81.4587 264.45 81.4587 271.65 81.4587 278.852C81.4587 286.952 81.4587 295.054 81.4587 303.155C81.4587 312.042 81.4587 320.929 81.4587 329.816C81.4587 339.328 81.4587 348.839 81.4587 358.351C81.4587 368.318 81.4587 378.285 81.4587 388.252C81.4587 398.561 81.4587 408.87 81.4587 419.179C81.4587 429.749 81.4587 440.32 81.4587 450.891C81.4587 461.466 81.4587 472.041 81.4587 482.616C81.4587 493.114 81.4587 503.613 81.4587 514.112C81.4587 524.394 81.4587 534.677 81.4587 544.959C81.4587 554.94 81.4587 564.922 81.4587 574.903C81.4587 584.333 81.4587 593.763 81.4587 603.192C81.4587 611.987 81.4587 620.782 81.4587 629.578C81.4587 637.6 81.4587 645.621 81.4587 653.642C81.4587 660.788 81.4587 667.933 81.4587 675.078C81.4587 681.128 81.4587 687.178 81.4587 693.228C81.4587 698.086 81.4587 702.943 81.4587 707.8C81.4587 711.334 81.4587 714.868 81.4587 718.402C81.4587 720.456 81.4587 722.51 81.4587 724.565C81.4587 726.429 81.489 728.279 81.7687 730.13C82.6194 735.759 85.2417 741.063 89.2036 745.168C93.1834 749.291 98.437 752.121 104.083 753.176C106.787 753.68 109.489 753.653 112.221 753.653C116.682 753.653 121.143 753.653 125.603 753.653C132.864 753.653 140.125 753.653 147.385 753.653C156.626 753.653 165.866 753.653 175.107 753.653C185.454 753.653 195.803 753.653 206.15 753.653C216.722 753.653 227.294 753.653 237.865 753.653C247.839 753.653 257.814 753.653 267.788 753.653C276.36 753.653 284.931 753.653 293.503 753.653C299.723 753.653 305.945 753.653 312.166 753.653C315.242 753.653 318.317 753.653 321.392 753.653C325.616 753.653 329.746 752.868 333.594 751.099C338.828 748.691 343.233 744.646 346.08 739.656C348.462 735.481 349.677 730.744 349.694 725.949C349.698 724.84 349.694 723.73 349.694 722.621C349.694 719.958 349.694 717.294 349.694 714.631C349.694 710.526 349.694 706.421 349.694 702.317C349.694 696.956 349.694 691.595 349.694 686.235C349.694 679.738 349.694 673.243 349.694 666.746C349.694 659.232 349.694 651.717 349.694 644.203C349.694 635.827 349.694 627.451 349.694 619.074C349.694 610.004 349.694 600.933 349.694 591.862C349.694 582.214 349.694 572.565 349.694 562.917C349.694 552.801 349.694 542.686 349.694 532.57C349.694 522.154 349.694 511.738 349.694 501.322C349.694 490.775 349.694 480.229 349.694 469.682C349.694 459.117 349.694 448.55 349.694 437.984C349.694 427.479 349.694 416.974 349.694 406.47C349.694 396.283 349.694 386.097 349.694 375.911C349.694 366.123 349.694 356.335 349.694 346.548C349.694 337.298 349.694 328.049 349.694 318.799C349.694 310.181 349.694 301.563 349.694 292.945C349.694 285.195 349.694 277.443 349.694 269.693C349.694 262.899 349.694 256.105 349.694 249.311C349.694 243.612 349.694 237.914 349.694 232.215C349.694 227.731 349.694 223.247 349.694 218.762C349.694 215.681 349.694 212.601 349.694 209.52C349.694 207.954 349.694 206.388 349.694 204.821C349.694 201.506 349.223 198.242 348.112 195.107C346.194 189.694 342.569 184.946 337.844 181.656C333.189 178.416 327.608 176.693 321.935 176.668C314.108 176.634 306.28 176.668 298.453 176.668C295.025 176.668 291.596 176.664 288.168 176.668C286.877 176.67 285.664 176.934 284.83 177.999C283.469 179.737 283.633 182.388 283.152 184.431C282.498 187.213 281.401 189.971 279.509 192.158C276.378 195.777 271.761 196.071 267.206 196.071C258.894 196.071 250.584 196.071 242.272 196.071C233.837 196.071 225.402 196.071 216.967 196.071C212.684 196.071 208.401 196.071 204.118 196.071C194.063 196.071 184.009 196.071 173.953 196.071C170.545 196.071 167.138 196.071 163.73 196.071C161.844 196.071 160.175 196.53 158.323 196.104C152.64 194.798 149.4 190.108 148.068 184.712C147.331 181.717 147.654 176.663 143.328 176.669Z" stroke="black" stroke-width="1.5" stroke-miterlimit="10" stroke-linecap="round" stroke-linejoin="round"/>
</g>
<defs>
<clipPath id="clip0_2_4">
<rect width="430" height="932" rx="215" fill="white"/>
</clipPath>
</defs>
</svg>
